<?xml version="1.0" encoding="utf-8"?>
<!-- Generator: Adobe Illustrator 27.4.0, SVG Export Plug-In . SVG Version: 6.00 Build 0)  -->
<svg version="1.1" id="Capa_1" xmlns="http://www.w3.org/2000/svg" xmlns:xlink="http://www.w3.org/1999/xlink" x="0px" y="0px"
	 viewBox="0 0 1080 1080" style="enable-background:new 0 0 1080 1080;" xml:space="preserve">
<style type="text/css">
	.st0{fill:#1D1D1B;}
	.st1{fill:#93C01F;}
</style>
<g>
	<path d="M768,359.4c21.6-22.9,36.9-51.7,35.2-84.1c-2.1-38.9-15.7-121.4-16.1-116.6c-0.3,4.6-56.8,12.9-57.7,12.7
		c-4.5,1.3-49.9,13.8-70.8,22.9c-12.6,5.5-22.3,10.4-33.2,18.7c-13.8,10.5-24.2,22.9-33.8,36.4c-20-4.2-41-6.6-62.5-6.6
		c-18.7,0-37,1.7-54.7,5c-9.3-12.9-19.4-24.8-32.7-34.9c-10.9-8.3-20.5-13.2-33.1-18.7c-21-9.2-66.3-21.6-70.8-22.9
		c-0.9,0.2-57.4-8.1-57.7-12.7c-0.4-4.8-14,77.7-16.1,116.6c-1.7,31.8,13,60.1,33.9,82.8c-9.4,14.2-16.8,29.5-22,45.4
		c-9.2,24-14.3,49.7-14.3,76.5c0,130.9,119.8,237.1,267.5,237.1S796.6,610.9,796.6,480c0,0,0,0,0,0c0.9-7.2,1.4-14.6,1.4-22.1
		C798,422.4,787.2,388.9,768,359.4z"/>
	<path class="st0" d="M729.5,171.3c-0.2,0-0.2,0.1-0.2,0.1C729.8,171.3,729.9,171.2,729.5,171.3z"/>
	<path class="st0" d="M337.8,171.4c0,0,0,0-0.2-0.1C337.3,171.2,337.4,171.3,337.8,171.4z"/>
</g>
<g>
	<g>
		<path class="st1" d="M530.2,540.2c1.2,6.9,2.1,13.8,3,20.7l0,10.3v5.2c0,0.1,0.1,0.6,0.4,1.2c0.3,0.6,0.7,1.2,1.1,1.8
			c0.4,0.6,0.9,1.3,1.4,2l0.8,1.1l0.4,0.6l0.4,0.5c1,1.4,1.9,2.7,3,4c1,1.3,2.1,2.6,3.2,3.7c1.2,1.1,2.2,2.3,3.5,3.2
			c1.2,1,2.6,1.8,3.9,2.6c0.7,0.4,1.4,0.7,2.1,1c0.3,0.2,0.7,0.3,1.1,0.5l1.1,0.3l1.1,0.4c0.4,0.1,0.7,0.2,1.1,0.3l2.3,0.5
			c1.6,0.1,3.1,0.4,4.7,0.3c1.6,0,3.2-0.2,4.8-0.3l2.4-0.4c0.8-0.1,1.6-0.4,2.4-0.6c3.2-0.8,6.3-1.9,9.3-3.3c1.5-0.6,3-1.4,4.5-2.1
			c1.5-0.8,3-1.6,4.4-2.4c2.9-1.7,5.7-3.4,8.3-5.4c2.6-2,4.9-4.2,6.9-6.7c1-1.3,1.9-2.6,2.7-4c0.4-0.7,0.8-1.4,1.1-2.1
			c0.3-0.7,0.6-1.5,1-2.2c1.7-2.8,3-5.8,4.1-9c1.1-3.2,1.8-6.6,2.5-10c0.2,1.7,0.5,3.5,0.6,5.2c0.1,1.8,0.1,3.5,0.1,5.3
			c-0.2,3.6-0.8,7.2-1.8,10.8c-1.4,3.4-3.3,6.6-5.6,9.5c-2.3,3-5,5.5-7.9,7.7c-2.9,2.2-5.9,4.1-9,5.9c-1.5,0.9-3.1,1.7-4.7,2.5
			c-1.6,0.8-3.2,1.6-4.8,2.3c-3.3,1.5-6.7,2.7-10.2,3.6c-0.9,0.2-1.8,0.5-2.7,0.6l-2.7,0.5c-1.8,0.2-3.7,0.5-5.5,0.4
			c-1.9,0.1-3.8-0.2-5.6-0.3l-2.8-0.6c-0.5-0.1-0.9-0.2-1.4-0.4l-1.4-0.4l-1.3-0.4c-0.4-0.2-0.9-0.4-1.3-0.6
			c-0.9-0.4-1.8-0.8-2.6-1.2c-1.6-1-3.3-1.9-4.7-3.1c-1.5-1.1-2.8-2.4-4.2-3.7c-1.3-1.3-2.5-2.7-3.6-4.1c-1.1-1.4-2.2-2.8-3.2-4.3
			l-0.4-0.5l-0.3-0.4l-0.8-1c-0.5-0.7-1.1-1.4-1.6-2.2c-0.5-0.8-1.1-1.6-1.5-2.6c-0.5-1-1-2.1-1-3.8v-5.2l0-10.3
			C528.1,554,529,547.1,530.2,540.2z"/>
		<path class="st1" d="M530.2,507.1c0.9,16.6,1.7,33.2,2.4,49.8c0.1,1,0.3,2.1,0.4,3.1c0.2,1,0.2,2.1,0.1,3.1
			c-0.1,2.1,0,4.2-0.1,6.2l0,6.2v0.8v0.2l0,0.4c0,0.2,0,0.5-0.1,0.7c-0.2,0.9-0.4,1.6-0.7,2.2c-0.6,1.2-1.2,2.2-1.9,3.2
			c-0.7,0.9-1.3,1.8-2,2.6l-0.4,0.6l-0.4,0.6l-0.9,1.3c-1.3,1.7-2.6,3.4-4,5.1c-1.4,1.6-3,3.2-4.7,4.7c-1.7,1.5-3.6,2.8-5.6,3.9
			c-4,2.3-8.4,3.7-13,4.1c-4.5,0.5-9,0-13.3-1c-8.6-2-16.4-5.9-23.6-10.2c-3.7-2.2-7.3-4.7-10.5-7.7c-3.3-3-6.1-6.6-8.2-10.5
			c-0.5-1-1.1-2-1.6-3c-0.4-1-0.7-2.1-1-3.2c-0.5-2.2-0.9-4.3-1.1-6.5c-0.2-2.2-0.2-4.3-0.1-6.5c0.1-2.2,0.4-4.2,0.7-6.3
			c0.4,2.1,0.8,4.1,1.3,6.1c0.5,2,1.1,3.9,1.8,5.8c0.7,1.9,1.5,3.7,2.5,5.4c0.2,0.4,0.5,0.9,0.7,1.3c0.3,0.4,0.5,0.8,0.7,1.3
			c0.4,0.9,0.7,1.8,1.2,2.6c1.9,3.4,4.2,6.4,7,9c2.9,2.6,6.1,4.9,9.6,7c7,4.2,14.3,7.8,21.9,9.5c3.8,0.8,7.7,1.2,11.4,0.8
			c3.8-0.4,7.4-1.5,10.6-3.3c1.6-0.9,3.2-2,4.6-3.2c1.4-1.3,2.8-2.6,4.1-4.1c1.3-1.5,2.5-3,3.7-4.7l0.9-1.2l0.5-0.7l0.5-0.7
			c0.7-0.8,1.2-1.6,1.8-2.4c0.5-0.8,1-1.5,1.3-2.2c0.2-0.3,0.2-0.6,0.3-0.8c0,0,0,0,0,0c0,0,0,0,0,0v-0.2v-0.8l0-6.2
			c0-2.1,0.1-4.2,0-6.2c-0.1-1,0-2.1,0.2-3.1c0.1-1,0.3-2.1,0.4-3.1C528.4,540.3,529.2,523.7,530.2,507.1z"/>
	</g>
	<path class="st1" d="M496.7,507.6c5.2-1.9,10.4-4.3,15.8-5.6c7.2-1.8,14.7-1.4,22-1.4c10.6,0,28.3,7,28.3,7l-33.1,32.1L496.7,507.6
		z"/>
	<g>
		<path class="st1" d="M593.9,525.5c19.2-7.4,38.7-13.7,58.6-18.9c19.8-5.2,40-9.3,60.2-12.3c40.6-6.1,81.6-8,122.5-7.5
			c-40.9,0.3-81.9,2.9-122.2,9.6c-20.2,3.4-40.1,7.8-59.8,13.3c-19.7,5.5-39,12.1-57.8,19.8L593.9,525.5z"/>
		<path class="st1" d="M621.5,529.2c20-4.8,40.2-8.4,60.6-10.9s40.9-3.8,61.4-4.1c41-0.6,81.9,3.1,122.4,9
			c-40.6-5.2-81.5-8.2-122.4-6.9c-20.4,0.6-40.8,2.3-61,5.1c-20.2,2.8-40.2,6.8-60,11.8L621.5,529.2z"/>
		<path class="st1" d="M638.8,537.5c20.5-0.2,41.1,0.7,61.5,2.8s40.7,5.3,60.8,9.6c40.1,8.5,79.2,21.1,117.4,35.8
			c-38.4-14.1-77.7-26-117.8-33.8c-20-3.9-40.3-6.8-60.6-8.5c-20.3-1.7-40.8-2.3-61.1-1.7L638.8,537.5z"/>
	</g>
	<g>
		<path class="st1" d="M456.7,527.7c-18.7-7.7-37.9-14.3-57.4-19.8c-19.5-5.5-39.3-9.9-59.3-13.3c-40-6.8-80.6-9.3-121.2-9.6
			c40.6-0.4,81.3,1.5,121.6,7.6c20.1,3,40.1,7.1,59.8,12.3c19.7,5.2,39.1,11.5,58.1,18.9L456.7,527.7z"/>
		<path class="st1" d="M429.9,531.6c-19.6-5.1-39.5-9-59.5-11.8c-20-2.8-40.3-4.5-60.5-5.1c-40.5-1.2-81.2,1.7-121.4,6.9
			c40.2-5.9,80.8-9.6,121.5-9c20.3,0.3,40.7,1.6,60.9,4.1c20.2,2.5,40.3,6.1,60.1,10.9L429.9,531.6z"/>
		<path class="st1" d="M413.6,540c-20.2-0.6-40.5,0-60.7,1.7c-20.2,1.7-40.3,4.6-60.2,8.5C252.9,558.1,214,570,175.9,584
			c37.9-14.7,76.6-27.3,116.4-35.8c19.9-4.3,40-7.5,60.3-9.6c20.3-2.1,40.7-3,61-2.8L413.6,540z"/>
	</g>
</g>
<g>
	<path d="M185,670.8l-14.5,8.3c-17.5,10-32.5,7-42.1-9.9c-9.7-16.9-4.7-31.3,12.8-41.3l56.8-32.5c17.5-10,32.5-7,42.1,9.9
		c9.6,16.9,4.7,31.3-12.8,41.3l-10.6,6.1l-9.3-16.2l11.7-6.7c7.8-4.5,8.8-9.6,5.7-15.1c-3.1-5.5-8.1-7.2-15.9-2.7l-59,33.8
		c-7.8,4.5-8.6,9.5-5.5,15c3.1,5.5,7.9,7.3,15.7,2.8l15.6-8.9L185,670.8z"/>
	<path d="M169.7,729.1l-12.4-15.4l98.2-78.7l12.4,15.4l-42.1,33.7l14.1,17.5l42.1-33.7l12.6,15.7l-98.2,78.7l-12.6-15.7l42.1-33.7
		l-14.1-17.5L169.7,729.1z"/>
	<path d="M300.6,688.4l14.2,13.8l-87.6,90.4L213,778.8L300.6,688.4z"/>
	<path d="M348.1,768.2l-9.9,13.1c-12.1,16.1-26.5,19-42.3,7l-7.5-5.6l-28.5,37.7l-15.8-11.9L320.1,708l23.2,17.6
		C359.1,737.5,360.2,752.1,348.1,768.2z M325,734.3l-25.7,34l7.5,5.6c5,3.8,9.5,3.6,14.9-3.6l11.4-15.1c5.4-7.2,4.4-11.5-0.6-15.3
		L325,734.3z"/>
	<path d="M369.4,743.3l17.2,9.8l-62.2,109.4l-17.2-9.8L369.4,743.3z"/>
	<path d="M425.5,829.2l26.5,8.2l-11.8,38.1c-6,19.2-19,27.2-37.5,21.5c-18.5-5.8-24.8-19.7-18.8-39l19.4-62.5
		c6-19.2,19-27.2,37.5-21.5c18.5,5.8,24.8,19.7,18.8,39l-3.6,11.7l-17.9-5.5l4-12.9c2.7-8.6-0.1-13-6.1-14.9
		c-6-1.9-10.8,0.2-13.5,8.8l-20.1,64.9c-2.7,8.6,0.1,12.8,6.2,14.7c6,1.9,10.7,0,13.4-8.6l6.9-22.2l-8.6-2.7L425.5,829.2z"/>
	<path d="M522.2,916.1l-19.9-2l-1.2-23.1l-24.2-2.4l-5.6,22.4l-18.1-1.8L485.6,786l28.8,2.8L522.2,916.1z M481.2,872l19,1.9
		l-3.1-64.3l-0.4,0L481.2,872z"/>
	<path d="M522.3,790.4l61-4.6l1.3,17.9l-20.6,1.5l8.1,107.6l-19.7,1.5l-8.1-107.6l-20.6,1.5L522.3,790.4z"/>
	<path d="M588.5,815.3c-5.3-19.4,1.9-33.3,20.6-38.4s32,3.2,37.3,22.6l17.2,63.1c5.3,19.4-1.9,33.3-20.6,38.4
		c-18.7,5.1-32-3.2-37.3-22.6L588.5,815.3z M625.2,874.5c2.4,8.7,7.1,10.9,13.2,9.3s9-6,6.6-14.7l-17.9-65.5
		c-2.4-8.7-7.1-10.9-13.2-9.3s-9,6-6.6,14.7L625.2,874.5z"/>
	<path d="M708.1,797.6l22.1-12.8l9,15.6l-22.1,12.8l26,45l-17.1,9.9l-62.9-109l45.3-26.2l9,15.6l-28.2,16.3L708.1,797.6z"/>
	<path d="M758,760.6l21-17.2l11.4,13.9l-21,17.2l23.3,28.5l26.4-21.6l11.4,13.9l-41.7,34.2l-79.7-97.4l41.7-34.2l11.4,13.9
		l-26.4,21.6L758,760.6z"/>
	<path d="M753.8,694.5l13.3-14.7l80,72.4l21.8-24.1l13.3,12.1L847.1,779L753.8,694.5z"/>
	<path d="M789.8,653l11.7-16l101.6,74.2l-11.7,16L789.8,653z"/>
	<path d="M834.3,582.8l15.2,8.8l59.2,77.8l18.9-32.5l15.6,9l-29,50.1l-15.2-8.8l-59.2-77.8l-18,31l-15.6-9L834.3,582.8z"/>
</g>
</svg>
